<svg  xmlns="http://www.w3.org/2000/svg" xmlns:xlink="http://www.w3.org/1999/xlink" width="575px" height="94.5px"><defs><filter filterUnits="userSpaceOnUse" id="Filter_0" x="117px" y="12.5px" width="343px" height="82px"  >                <feOffset in="SourceAlpha" dx="0" dy="6" />                <feGaussianBlur result="blurOut" stdDeviation="2.828" />                <feFlood flood-color="rgb(0, 0, 0)" result="floodOut" />                <feComposite operator="atop" in="floodOut" in2="blurOut" />                <feComponentTransfer><feFuncA type="linear" slope="0.3"/></feComponentTransfer>                <feMerge>    <feMergeNode/>    <feMergeNode in="SourceGraphic"/>  </feMerge>            </filter><filter filterUnits="userSpaceOnUse" id="Filter_1" x="120px" y="0.5px" width="337px" height="76px"  >                <feOffset in="SourceAlpha" dx="0" dy="-2" />                <feGaussianBlur result="blurOut" stdDeviation="2.236" />                <feFlood flood-color="rgb(0, 29, 221)" result="floodOut" />                <feComposite operator="atop" in="floodOut" in2="blurOut" />                <feComponentTransfer><feFuncA type="linear" slope="0.3"/></feComponentTransfer>                <feMerge>    <feMergeNode/>    <feMergeNode in="SourceGraphic"/>  </feMerge>            </filter><linearGradient id="PSgrad_0" x1="0%" x2="89.879%" y1="43.837%" y2="0%">  <stop offset="0%" stop-color="rgb(76,87,245)" stop-opacity="1" />  <stop offset="50%" stop-color="rgb(36,63,245)" stop-opacity="1" />  <stop offset="100%" stop-color="rgb(0,28,215)" stop-opacity="1" /></linearGradient><filter filterUnits="userSpaceOnUse" id="Filter_2" x="204px" y="21.5px" width="160px" height="42px"  >                <feOffset in="SourceAlpha" dx="0" dy="3" />                <feGaussianBlur result="blurOut" stdDeviation="0" />                <feFlood flood-color="rgb(0, 0, 0)" result="floodOut" />                <feComposite operator="atop" in="floodOut" in2="blurOut" />                <feComponentTransfer><feFuncA type="linear" slope="0.3"/></feComponentTransfer>                <feMerge>    <feMergeNode/>    <feMergeNode in="SourceGraphic"/>  </feMerge>            </filter></defs><g filter="url(#Filter_0)"><path fill-rule="evenodd"  fill="rgb(0, 25, 210)" d="M124.000,48.197 L156.000,80.197 L418.000,80.197 L452.000,47.197 C452.000,47.197 449.829,45.089 446.583,41.939 C436.986,32.625 418.000,14.197 418.000,14.197 L157.000,14.197 L124.000,48.197 Z"/></g><path fill-rule="evenodd"  fill="rgb(0, 25, 210)" d="M449.000,50.197 L442.000,43.197 L452.000,39.197 L452.000,47.197 L449.000,50.197 ZM124.000,49.197 L124.000,41.197 L138.000,46.197 L131.000,55.197 L124.000,49.197 Z"/><g filter="url(#Filter_1)"><path fill-rule="evenodd"  fill="rgb(75, 86, 246)" d="M124.000,41.197 L156.000,73.197 L418.000,73.197 L452.000,40.197 L418.000,7.197 L157.000,7.197 L124.000,41.197 Z"/></g><path stroke-width="1px" stroke="rgb(255, 255, 255)" fill="url(#PSgrad_0)" d="M124.000,41.197 L156.000,73.197 L418.000,73.197 L452.000,40.197 L418.000,7.197 L157.000,7.197 L124.000,41.197 Z"/><path fill-rule="evenodd"  fill="rgb(55, 118, 246)" d="M130.000,14.500 L119.000,14.500 L91.000,42.500 L119.000,70.500 L131.000,70.500 L104.000,42.500 L130.000,14.500 Z"/><path fill-rule="evenodd"  fill="rgb(21, 66, 207)" d="M85.000,14.500 L74.000,14.500 L46.000,42.500 L74.000,70.500 L86.000,70.500 L59.000,42.500 L85.000,14.500 Z"/><path fill-rule="evenodd"  fill="rgb(7, 42, 182)" d="M39.000,14.500 L28.000,14.500 L0.000,42.500 L28.000,70.500 L40.000,70.500 L13.000,42.500 L39.000,14.500 Z"/><path fill-rule="evenodd"  fill="rgb(55, 118, 246)" d="M444.156,14.500 L455.156,14.500 L483.156,42.500 L455.156,70.500 L443.156,70.500 L470.156,42.500 L444.156,14.500 Z"/><path fill-rule="evenodd"  fill="rgb(21, 66, 207)" d="M489.156,14.500 L500.156,14.500 L528.156,42.500 L500.156,70.500 L488.156,70.500 L515.156,42.500 L489.156,14.500 Z"/><path fill-rule="evenodd"  fill="rgb(7, 42, 182)" d="M535.156,14.500 L546.156,14.500 L574.156,42.500 L546.156,70.500 L534.156,70.500 L561.156,42.500 L535.156,14.500 Z"/><g filter="url(#Filter_2)"><text kerning="auto" font-family="Adobe Heiti Std" fill="rgb(0, 0, 0)" transform="matrix( 1.70787502469734, 0, 0, 1.70787502469734,205.077387233711, 54.6493371973811)" font-size="23.421px"><tspan font-size="23.421px" font-family="Alibaba PuHuiTi" fill="#FFFFFF">&#27963;&#21160;&#20171;&#32461;</tspan></text></g></svg>